# xmcd CD database file
#
# Track frame offsets:
#	150
#	13766
#	32405
#	70975
#	122355
#	125505
#	155959
#	176910
#	203633
#	244409
#	260635
#
# Disc length: 3774 seconds
#
# Revision: 0
# Processed by: cddbd v1.5.2PL0 Copyright (c) Steve Scherf et al.
# Submitted via: CDex 1.79
#
DISCID=9e0ebc0b
DTITLE=Gene Krupa - Seven Classic Albums - CD 3
DYEAR=1959
DGENRE=Jazz
TTITLE0=Petit Fleur
TTITLE1=Lonesome Road
TTITLE2=Don't Be That Way
TTITLE3=Drum Boogie
TTITLE4=Introdution By Norman Granz
TTITLE5=Idaho
TTITLE6=Sophisticated Lady
TTITLE7=Flying Home
TTITLE8=Drum Boogie
TTITLE9=The Drum Battle
TTITLE10=Perdido
EXTD=YEAR: 1959
EXTT0=
EXTT1=
EXTT2=
EXTT3=
EXTT4=
EXTT5=
EXTT6=
EXTT7=
EXTT8=
EXTT9=
EXTT10=
PLAYORDER=
